<svg width="24" height="24" viewBox="0 0 24 24" fill="currentColor" xmlns="http://www.w3.org/2000/svg">
<path fill="currentColor" d="M6.49996 6H17.5L12 13L6.49996 6ZM3.99996 6C5.67595 8.44194 8.49656 12.0793 9.56878 13.4505C9.84861 13.8083 9.99835 14.2475 9.99532 14.7018L9.96361 19.4529C9.96138 19.7874 10.1554 20.0958 10.4557 20.243V20.243C11.42 20.7157 12.5637 20.7181 13.5243 20.2379V20.2379C13.8158 20.0921 14 19.7941 14 19.4681V14.6943C14 14.2446 14.1496 13.8106 14.4266 13.4563C15.4953 12.0897 18.3216 8.44543 20 6C20.5304 5.22 19.8632 4 19 4H4.99996C4.13676 4 3.46956 5.22 3.99996 6Z"/>
</svg>
