<svg width="24" height="24" viewBox="0 0 24 24" fill="none" xmlns="http://www.w3.org/2000/svg">
<path fill-rule="evenodd" clip-rule="evenodd" d="M19.41 10.42L17.99 9L14.82 12.17L13.41 10.75L12 12.16L14.82 15L19.41 10.42Z" fill="#3C3C3D"/>
<path d="M10 7H5V9H10V7Z" fill="#3C3C3D"/>
<path d="M10 11H5V13H10V11Z" fill="#3C3C3D"/>
<path d="M10 15H5V17H10V15Z" fill="#3C3C3D"/>
<path d="M13 21V19C11.0716 19 4.00016 19 4.00016 19V5H20.0001C20.0001 5 20 10.8445 20 13H22C22 13 22 6 22 5C22 4 21 2.99998 20 3C19 3.00002 5.00059 3 4.0003 3C3 3 2.00016 4 1.99998 5C1.99945 7.99998 2.00001 15.9999 2.00016 19C2.00022 20 3.00011 21 4.00002 21C7.00002 21 13 21 13 21Z" fill="#3C3C3D"/>
<path d="M15 20V18H18V15H20V18H23V20H20V23H18V20H15Z" fill="#3C3C3D"/>
</svg>
