<svg width="24" height="24" viewBox="0 0 24 24" fill="none" xmlns="http://www.w3.org/2000/svg">
<path fill-rule="evenodd" clip-rule="evenodd" d="M2 4C2 3.44772 2.44772 3 3 3H6C6.55228 3 7 3.44772 7 4V20C7 20.5523 6.55228 21 6 21H3C2.44772 21 2 20.5523 2 20V4ZM5 5H4V19H5V5Z"/>
<path d="M8 21V19H10V21H8Z"/>
<path fill-rule="evenodd" clip-rule="evenodd" d="M11 4C11 3.44772 11.4477 3 12 3H15C15.5523 3 16 3.44772 16 4V20C16 20.5523 15.5523 21 15 21H12C11.4477 21 11 20.5523 11 20V4ZM14 5H13V19H14V5Z"/>
<path fill-rule="evenodd" clip-rule="evenodd" d="M17 4C17 3.44772 17.4477 3 18 3H21C21.5523 3 22 3.44772 22 4V20C22 20.5523 21.5523 21 21 21H18C17.4477 21 17 20.5523 17 20V4ZM20 5H19V19H20V5Z"/>
</svg>
