<svg width="24" height="24" viewBox="0 0 24 24" fill="none" xmlns="http://www.w3.org/2000/svg">
<path d="M3 5C3 4.44772 3.44772 4 4 4H5C5.55228 4 6 4.44772 6 5V19C6 19.5523 5.55228 20 5 20H4C3.44772 20 3 19.5523 3 19V5Z"/>
<path d="M8 5C8 4.44772 8.44772 4 9 4H10C10.5523 4 11 4.44772 11 5V19C11 19.5523 10.5523 20 10 20H9C8.44772 20 8 19.5523 8 19V5Z"/>
<path d="M18 5C18 4.44772 18.4477 4 19 4H20C20.5523 4 21 4.44772 21 5V19C21 19.5523 20.5523 20 20 20H19C18.4477 20 18 19.5523 18 19V5Z"/>
<path d="M12.2 12C12.0895 12 12 11.9105 12 11.8V10.2C12 10.0895 12.0895 10 12.2 10H14.5L14.0179 8.55372C14.006 8.51814 14 8.48088 14 8.44337V8.44337C14 8.11938 14.4031 7.97027 14.6139 8.21626L16.8884 10.8698C16.9526 10.9447 16.9526 11.0553 16.8884 11.1302L14.6139 13.7837C14.4031 14.0297 14 13.8806 14 13.5566V13.5566C14 13.5191 14.006 13.4819 14.0179 13.4463L14.5 12H12.2Z"/>
</svg>
