<svg width="24" height="24" viewBox="0 0 24 24" fill="currentColor" xmlns="http://www.w3.org/2000/svg">
<path d="M6.70714 10.7294C6.18714 10.7134 5.72314 10.6654 5.31514 10.5854C4.90714 10.4974 4.53514 10.3774 4.19914 10.2254V8.67736C4.52714 8.83736 4.92314 8.98536 5.38714 9.12136C5.85114 9.24936 6.29114 9.32536 6.70714 9.34936V7.53736C6.09114 7.29736 5.59514 7.06536 5.21914 6.84136C4.85114 6.60936 4.58714 6.35336 4.42714 6.07336C4.26714 5.79336 4.18714 5.45736 4.18714 5.06536C4.18714 4.46536 4.41914 3.98936 4.88314 3.63736C5.35514 3.27736 5.96314 3.06536 6.70714 3.00136V2.33334H7.51114V2.97736C8.39914 3.00936 9.20714 3.18936 9.93514 3.51736L9.38314 4.88536C9.06314 4.74936 8.73914 4.64536 8.41114 4.57336C8.09114 4.50136 7.79114 4.45336 7.51114 4.42936V6.15736C7.94314 6.31736 8.35514 6.49336 8.74714 6.68536C9.13914 6.86936 9.45514 7.10536 9.69514 7.39336C9.94314 7.68136 10.0671 8.06136 10.0671 8.53336C10.0671 9.11736 9.85514 9.60536 9.43114 9.99736C9.00714 10.3894 8.36714 10.6254 7.51114 10.7054V11.54H6.70714V10.7294ZM6.70714 4.45336C6.20314 4.52536 5.95114 4.72936 5.95114 5.06536C5.95114 5.23336 6.01114 5.37336 6.13114 5.48536C6.25114 5.59736 6.44314 5.71336 6.70714 5.83336V4.45336ZM7.51114 9.31336C8.03914 9.21736 8.30314 8.98536 8.30314 8.61736C8.30314 8.45736 8.23514 8.32136 8.09914 8.20936C7.97114 8.08936 7.77514 7.96936 7.51114 7.84936V9.31336Z"/>
<path d="M7.624 12.312C8.056 12.312 8.464 12.36 8.848 12.456C9.24 12.544 9.592 12.656 9.904 12.792L9.364 14.136C9.092 14.024 8.82 13.936 8.548 13.872C8.276 13.8 8.016 13.764 7.768 13.764C7.512 13.764 7.288 13.84 7.096 13.992C6.912 14.136 6.82 14.396 6.82 14.772V15.9H9.016V17.184H6.82V18.024C6.82 18.448 6.724 18.768 6.532 18.984C6.34 19.2 6.14 19.364 5.932 19.476H10.0671V21H4V19.548C4.328 19.404 4.584 19.232 4.768 19.032C4.96 18.824 5.056 18.492 5.056 18.036V17.184H4.012V15.9H5.056V14.76C5.056 14.168 5.172 13.696 5.404 13.344C5.636 12.984 5.944 12.724 6.328 12.564C6.72 12.396 7.152 12.312 7.624 12.312Z"/>
<path d="M16.384 15.96L17.932 12.432H19.768L17.524 16.812H18.664V17.856H17.224V18.66H18.664V19.704H17.224V21H15.544V19.704H14.092V18.66H15.544V17.856H14.092V16.812H15.208L13 12.432H14.848L16.384 15.96Z"/>
<path d="M17.32 2.91199C17.72 2.91199 18.084 2.95199 18.412 3.03199C18.748 3.11199 19.072 3.23199 19.384 3.39199L18.808 4.74799C18.536 4.62799 18.284 4.53599 18.052 4.47199C17.82 4.39999 17.576 4.36399 17.32 4.36399C16.848 4.36399 16.456 4.50399 16.144 4.78399C15.832 5.05599 15.632 5.45199 15.544 5.97199H17.908V7.00399H15.46C15.46 7.03599 15.456 7.07999 15.448 7.13599C15.448 7.18399 15.448 7.24399 15.448 7.31599C15.448 7.37199 15.448 7.43199 15.448 7.49599C15.448 7.55199 15.452 7.61199 15.46 7.67599H17.536V8.71999H15.556C15.748 9.67199 16.376 10.148 17.44 10.148C17.744 10.148 18.028 10.12 18.292 10.064C18.564 9.99999 18.816 9.91599 19.048 9.81199V11.312C18.824 11.424 18.572 11.508 18.292 11.564C18.02 11.628 17.7 11.66 17.332 11.66C16.396 11.66 15.616 11.408 14.992 10.904C14.368 10.392 13.972 9.66399 13.804 8.71999H13V7.67599H13.696C13.68 7.56399 13.672 7.44399 13.672 7.31599C13.672 7.25199 13.672 7.19199 13.672 7.13599C13.672 7.07999 13.676 7.03599 13.684 7.00399H13V5.97199H13.78C13.884 5.33199 14.096 4.78399 14.416 4.32799C14.736 3.87199 15.144 3.52399 15.64 3.28399C16.136 3.03599 16.696 2.91199 17.32 2.91199Z"/>
</svg>
