<svg width="24" height="24" viewBox="0 0 24 24" fill="none" xmlns="http://www.w3.org/2000/svg">
<g clip-path="url(#clip0_792_174101)">
<path d="M19.0711 4.92892C15.1678 1.02569 8.83216 1.02568 4.92894 4.92891C1.02571 8.83214 1.02571 15.1678 4.92894 19.071C8.83216 22.9743 15.1678 22.9743 19.0711 19.071C22.9743 15.1678 22.9743 8.83215 19.0711 4.92892ZM6.34315 17.6568C3.21774 14.5314 3.21774 9.46854 6.34315 6.34313C9.46856 3.21772 14.5314 3.21772 17.6569 6.34313C20.7823 9.46854 20.7823 14.5314 17.6569 17.6568C14.5314 20.7822 9.46856 20.7822 6.34315 17.6568ZM17.7782 10.2218L10 18L5.75736 13.7573L7.17157 12.3431L10 15.1716L16.364 8.80759L17.7782 10.2218Z" fill="#3C3C3D"/>
</g>
<defs>
<clipPath id="clip0_792_174101">
<rect width="24" height="24" fill="white"/>
</clipPath>
</defs>
</svg>
