<svg width="24" height="24" viewBox="0 0 24 24" fill="none" xmlns="http://www.w3.org/2000/svg">
<path fill-rule="evenodd" clip-rule="evenodd" d="M4 9V5C4 3.89543 4.89543 3 6 3H9C10.1046 3 11 3.89543 11 5V9C11 10.1046 10.1046 11 9 11H6C4.89543 11 4 10.1046 4 9ZM9 5H6V9H9V5Z"/>
<path d="M20 10C20 10.5523 19.5523 11 19 11H14C13.4477 11 13 10.5523 13 10V10C13 9.44772 13.4477 9 14 9H16V5L15.2944 5.35279C14.6997 5.65014 14 5.21769 14 4.55279V4.55279C14 4.214 14.1914 3.9043 14.4944 3.75279L15.7889 3.10557C15.9277 3.03615 16.0808 3 16.2361 3H17C17.5523 3 18 3.44772 18 4V9H19C19.5523 9 20 9.44772 20 10V10Z"/>
<path fill-rule="evenodd" clip-rule="evenodd" d="M13 19V15C13 13.8954 13.8954 13 15 13H18C19.1046 13 20 13.8954 20 15V19C20 20.1046 19.1046 21 18 21H15C13.8954 21 13 20.1046 13 19ZM18 15H15V19H18V15Z"/>
<path d="M11 20C11 20.5523 10.5523 21 10 21H5C4.44772 21 4 20.5523 4 20V20C4 19.4477 4.44772 19 5 19H7V15L6.29443 15.3528C5.69972 15.6501 5 15.2177 5 14.5528V14.5528C5 14.214 5.19141 13.9043 5.49443 13.7528L6.78885 13.1056C6.92771 13.0361 7.08082 13 7.23607 13H8C8.55228 13 9 13.4477 9 14V19H10C10.5523 19 11 19.4477 11 20V20Z"/>
</svg>
