<svg width="24" height="24" viewBox="0 0 24 24" fill="none" xmlns="http://www.w3.org/2000/svg">
<path fill-rule="evenodd" clip-rule="evenodd" d="M15.9105 8.68L14.4905 7.26L11.3205 10.43L9.91052 9.01L8.50052 10.42L11.3205 13.26L15.9105 8.68Z" fill="#3C3C3D"/>
<path d="M16.0005 15H8.00052V17H16.0005V15Z" fill="#3C3C3D"/>
<path fill-rule="evenodd" clip-rule="evenodd" d="M19.0005 3C13.5332 3.00004 10.468 2.99999 5.00069 3C4.00044 3.00001 3.00054 4 3.00044 5C2.9999 10.4673 2.99981 13.5327 3.00044 19C3.00056 20 4.00049 21 5.00069 21C10.4679 21 13.5332 21 19.0004 21C20.0005 21 21.0004 20 21.0004 19C21.0004 13.5327 21.0004 10.4673 21.0004 5C21.0004 4 20.0004 3 19.0005 3ZM5.00069 5V19H19.0005V14L19.0006 5H5.00069Z" fill="#3C3C3D"/>
</svg>
