<svg width="24" height="24" viewBox="0 0 24 24" fill="currentColor" xmlns="http://www.w3.org/2000/svg">
<path fill="currentColor" d="M6.2189 10.2646C6.18197 9.89216 6.02347 9.60286 5.7434 9.39666C5.46334 9.19046 5.08325 9.08736 4.60313 9.08736C4.2769 9.08736 4.00145 9.13352 3.77678 9.22585C3.55212 9.3151 3.37977 9.43975 3.25974 9.59979C3.14279 9.75982 3.08431 9.94141 3.08431 10.1445C3.07816 10.3138 3.11355 10.4615 3.19049 10.5877C3.27051 10.7139 3.37977 10.8232 3.51826 10.9155C3.65676 11.0047 3.81679 11.0832 3.99838 11.1509C4.17996 11.2156 4.37385 11.271 4.58005 11.3171L5.42948 11.5202C5.84189 11.6126 6.22044 11.7357 6.56514 11.8896C6.90983 12.0434 7.20837 12.2327 7.46073 12.4574C7.7131 12.6821 7.90853 12.9467 8.04703 13.2514C8.1886 13.5561 8.26092 13.9054 8.264 14.2994C8.26092 14.878 8.1132 15.3796 7.82082 15.8043C7.53152 16.226 7.11296 16.5537 6.56514 16.7876C6.02039 17.0185 5.36331 17.1339 4.5939 17.1339C3.83064 17.1339 3.16587 17.0169 2.59958 16.783C2.03637 16.5491 1.59627 16.2029 1.27927 15.7443C0.96535 15.2827 0.800696 14.7118 0.785307 14.0316H2.71961C2.74115 14.3486 2.83195 14.6133 2.99198 14.8256C3.1551 15.0349 3.37207 15.1934 3.64291 15.3011C3.91682 15.4058 4.22612 15.4581 4.57082 15.4581C4.90936 15.4581 5.20328 15.4089 5.45257 15.3104C5.70493 15.2119 5.90036 15.0749 6.03886 14.8995C6.17735 14.7241 6.2466 14.5225 6.2466 14.2947C6.2466 14.0824 6.18351 13.9039 6.05732 13.7592C5.93422 13.6146 5.75264 13.4915 5.51258 13.3899C5.2756 13.2884 4.98476 13.196 4.64007 13.1129L3.61059 12.8544C2.81348 12.6605 2.1841 12.3574 1.72245 11.945C1.2608 11.5326 1.03152 10.977 1.0346 10.2784C1.03152 9.70597 1.18386 9.20585 1.49163 8.77805C1.80247 8.35026 2.22873 8.01634 2.77039 7.77628C3.31206 7.53622 3.92759 7.41619 4.61698 7.41619C5.31869 7.41619 5.93114 7.53622 6.45434 7.77628C6.98062 8.01634 7.38995 8.35026 7.68232 8.77805C7.9747 9.20585 8.12551 9.70135 8.13474 10.2646H6.2189ZM11.8771 13.7131H13.576L14.43 14.8118L15.2702 15.7905L16.8536 17.7756H14.9886L13.8991 16.4368L13.3405 15.6428L11.8771 13.7131ZM16.9968 12.2727C16.9968 13.3037 16.8013 14.1809 16.4105 14.9041C16.0227 15.6274 15.4933 16.1798 14.8224 16.5614C14.1545 16.94 13.4036 17.1293 12.5696 17.1293C11.7294 17.1293 10.9753 16.9384 10.3075 16.5568C9.63963 16.1752 9.11182 15.6228 8.72403 14.8995C8.33625 14.1763 8.14236 13.3007 8.14236 12.2727C8.14236 11.2417 8.33625 10.3646 8.72403 9.64134C9.11182 8.91809 9.63963 8.36719 10.3075 7.98864C10.9753 7.60701 11.7294 7.41619 12.5696 7.41619C13.4036 7.41619 14.1545 7.60701 14.8224 7.98864C15.4933 8.36719 16.0227 8.91809 16.4105 9.64134C16.8013 10.3646 16.9968 11.2417 16.9968 12.2727ZM14.9701 12.2727C14.9701 11.6049 14.8701 11.0417 14.6701 10.5831C14.4731 10.1245 14.1946 9.77675 13.8345 9.53977C13.4744 9.30279 13.0527 9.1843 12.5696 9.1843C12.0864 9.1843 11.6647 9.30279 11.3046 9.53977C10.9446 9.77675 10.6645 10.1245 10.4644 10.5831C10.2675 11.0417 10.169 11.6049 10.169 12.2727C10.169 12.9406 10.2675 13.5038 10.4644 13.9624C10.6645 14.4209 10.9446 14.7687 11.3046 15.0057C11.6647 15.2427 12.0864 15.3612 12.5696 15.3612C13.0527 15.3612 13.4744 15.2427 13.8345 15.0057C14.1946 14.7687 14.4731 14.4209 14.6701 13.9624C14.8701 13.5038 14.9701 12.9406 14.9701 12.2727ZM17.1775 17V7.54545H19.1764V15.3519H23.2297V17H17.1775Z"/>
</svg>
