<svg width="24" height="24" viewBox="0 0 24 24" fill="currentColor" xmlns="http://www.w3.org/2000/svg">
<path d="M16.0005 7H8.00052V9H16.0005V7Z"/>
<path fill-rule="evenodd" clip-rule="evenodd" d="M19.0005 3C13.5332 3.00004 10.468 2.99999 5.00069 3C4.00044 3.00001 3.00054 4 3.00044 5C2.9999 10.4673 2.99981 9.53266 3.00044 15C3.00056 16 4.00049 17 5.00069 17C7.30787 17 8 17 8 17L12 22L16 17C16 17 16.6928 17 19.0004 17C20.0005 17 21.0004 16 21.0004 15C21.0004 9.53266 21.0004 10.4673 21.0004 5C21.0004 4 20.0004 3 19.0005 3ZM5.00069 5V15L9 15L12 19L15 15L19.0005 15L19.0006 5H5.00069Z"/>
<path d="M14.0005 11H8.00052V13H14.0005V11Z"/>
</svg>
