<svg width="24" height="24" viewBox="0 0 24 24" fill="currentColor" xmlns="http://www.w3.org/2000/svg">
<path fill="currentColor" fill-rule="evenodd" clip-rule="evenodd" d="M8.00004 8C9.00004 8 10 7 10 6C10 4.4379 10 5.5621 10 4C10 3 9.00004 1.99999 8.00004 2C6.04742 2.00001 5.95266 2 4.00004 2C3.00004 2 1.99998 3 2.00004 4C2.00014 5.5621 2.00024 4.4379 2.00004 6C1.99992 7 3.00004 8 4.00004 8C5.95266 8 7.00004 8 8.00004 8ZM8.00004 4H4.00004V6H8.00004V4Z"/>
<path fill="currentColor" fill-rule="evenodd" clip-rule="evenodd" d="M14 15C15 15 16 14 16 13C16 11.4379 16 12.5621 16 11C16 10 15 8.99999 14 9C12.0474 9.00001 11.9527 9 10 9C9.00004 9 7.99998 10 8.00004 11C8.00014 12.5621 8.00024 11.4379 8.00004 13C7.99992 14 9.00004 15 10 15C11.9527 15 13 15 14 15ZM14 11H10V13H14V11Z"/>
<path fill="currentColor" fill-rule="evenodd" clip-rule="evenodd" d="M13.0001 22C14.0001 22 15.0001 21 15.0001 20C15.0001 18.4379 15.0001 19.5621 15.0001 18C15.0001 17 14.0001 16 13.0001 16C11.0474 16 10.9527 16 9.00006 16C8.00006 16 7 17 7.00006 18C7.00016 19.5621 7.00026 18.4379 7.00006 20C6.99994 21 8.00006 22 9.00006 22C10.9527 22 12.0001 22 13.0001 22ZM13.0001 18H9.00006V20H13.0001V18Z"/>
<path fill="currentColor" d="M11 4C11 4 17 4 19 4C21.5 4 23 6 23 8C23 10 21.5 12 19 12C18.219 12 17 12 17 12V10C17 10 17.8285 10 19 10C20 10 21 9 21 8C21 7 20 6 19 6C18 6 11 6 11 6V4Z"/>
<path fill="currentColor" d="M6.00006 20C6.00006 20 7.00006 20 5.00006 20C3.00006 20 1.00028 18 1.00008 16C0.999978 15 1.00006 15.6796 1.00006 15C1.00006 13 3 11 5.00006 11C5.78111 11 7.00006 11 7.00006 11V13C7.00006 13 6.17163 13 5.00006 13C4.00006 13 3.00006 14 3.00006 15C3.00006 15.4297 3.00006 15 3.00006 16C3.00006 17 4.00006 18 5.00006 18C6.00006 18 6.00006 18 6.00006 18V20Z"/>
</svg>
