<svg width="24" height="24" viewBox="0 0 24 24" fill="currentColor" xmlns="http://www.w3.org/2000/svg">
<path fill-rule="evenodd" clip-rule="evenodd" d="M15 21C18.866 21 22 17.866 22 14C22 10.134 18.866 7 15 7C11.134 7 8 10.134 8 14C8 17.866 11.134 21 15 21ZM10 14C10 16.6584 12.3199 19 15 19C16.1256 19 17.1643 18.6281 18 18.0004C19.2144 17.0882 20 15.6358 20 14C20 11.2386 17.7614 9 15 9C13.8742 9 12.8353 9.37209 11.9995 10C10.7853 10.9122 10 12.3644 10 14Z"/>
<path d="M14 14.4648C14 14.7992 14.1671 15.1114 14.4453 15.2969L16.5313 16.6875C16.8211 16.8807 17.1923 16.9039 17.5039 16.7481V16.7481C18.1705 16.4147 18.2284 15.4856 17.6082 15.0721L16 14V11C16 10.4477 15.5523 10 15 10V10C14.4477 10 14 10.4477 14 11V14.4648Z"/>
<path fill-rule="evenodd" clip-rule="evenodd" d="M18 4H17V2H15V4H7V2H5V4H4C2.89 4 2.01 4.9 2.01 6L2 20C2 21.1 2.89 22 4 22H18C19.1 22 20 21.1 20 20V14V6C20 4.9 19.1 4 18 4ZM20 14C20 15.6358 19.2144 17.0882 18 18.0004V20H4V10H11.9995C12.8353 9.37209 13.8742 9 15 9C17.7614 9 20 11.2386 20 14ZM18 8H4V6H18V8Z"/>
</svg>
