<svg width="24" height="24" viewBox="0 0 24 24" fill="none" xmlns="http://www.w3.org/2000/svg">
<path fill-rule="evenodd" clip-rule="evenodd" d="M12 21C16.9706 21 21 16.9706 21 12C21 7.02944 16.9706 3 12 3C7.02944 3 3 7.02944 3 12C3 16.9706 7.02944 21 12 21ZM5 12C5 15.866 8.13401 19 12 19C15.866 19 19 15.866 19 12C19 8.13401 15.866 5 12 5C8.13401 5 5 8.13401 5 12Z"/>
<path d="M11 12.5C11 12.8148 11.1482 13.1111 11.4 13.3L14.5056 15.6292C14.8086 15.8564 15.214 15.893 15.5528 15.7236V15.7236C16.2177 15.3912 16.3003 14.4752 15.7056 14.0292L13 12V8C13 7.44772 12.5523 7 12 7V7C11.4477 7 11 7.44772 11 8V12.5Z"/>
</svg>
