<svg width="24" height="24" viewBox="0 0 24 24" fill="none" xmlns="http://www.w3.org/2000/svg">
<path fill="currentColor" d="M22 20V18H20.7047C20.2821 18 19.9051 17.7343 19.763 17.3363L15.237 4.66366C15.0949 4.26567 14.7179 4 14.2953 4H8V6H11.259C12.0308 6 12.5116 6.83721 12.1227 7.50387L6.27244 17.533C6.09402 17.8388 6 18.1866 6 18.5407V20H9V18.5183C9 18.1784 9.08662 17.8441 9.25169 17.547L12.9353 10.9165C13.3516 10.1671 14.4563 10.2547 14.7492 11.0604L17.7606 19.3417C17.9043 19.7369 18.2799 20 18.7004 20H22Z"/>
<path fill="currentColor" d="M2 5C2 4.44772 2.44772 4 3 4H4C4.55228 4 5 4.44772 5 5V19C5 19.5523 4.55228 20 4 20H3C2.44772 20 2 19.5523 2 19V5Z"/>
<path fill="currentColor" d="M4.31156 10.7837C4.20111 10.7837 4.11156 10.6942 4.11156 10.5837V8.98374C4.11156 8.87328 4.20111 8.78374 4.31156 8.78374H6.61156L6.12947 7.33747C6.11761 7.30188 6.11156 7.26462 6.11156 7.22711C6.11156 6.90312 6.51465 6.75401 6.7255 7L9 9.65358C9.0642 9.72848 9.0642 9.839 9 9.9139L6.7255 12.5675C6.51465 12.8135 6.11156 12.6644 6.11156 12.3404C6.11156 12.3029 6.11761 12.2656 6.12947 12.23L6.61156 10.7837H4.31156Z"/>
</svg>
