<svg width="24" height="24" viewBox="0 0 24 24" fill="none" xmlns="http://www.w3.org/2000/svg">
<path fill="#3C3C3D" d="M8.2 17.5C8.08954 17.5 8 17.4105 8 17.3V15.7C8 15.5895 8.08954 15.5 8.2 15.5H10.5L10.0179 14.0537C10.006 14.0181 10 13.9809 10 13.9434C10 13.6194 10.4031 13.4703 10.6139 13.7163L12.8884 16.3698C12.9526 16.4447 12.9526 16.5553 12.8884 16.6302L10.6139 19.2837C10.4031 19.5297 10 19.3806 10 19.0566C10 19.0191 10.006 18.9819 10.0179 18.9463L10.5 17.5H8.2Z"/>
<path fill="#3C3C3D" d="M4.2 12.5C4.08954 12.5 4 12.4105 4 12.3V10.7C4 10.5895 4.08954 10.5 4.2 10.5H6.5L6.01791 9.05373C6.00605 9.01814 6 8.98088 6 8.94337C6 8.61938 6.40309 8.47027 6.61394 8.71626L8.88844 11.3698C8.95263 11.4447 8.95263 11.5553 8.88844 11.6302L6.61394 14.2837C6.40309 14.5297 6 14.3806 6 14.0566C6 14.0191 6.00605 13.9819 6.01791 13.9463L6.5 12.5H4.2Z"/>
<path fill="#3C3C3D" d="M19 5C19.5523 5 20 5.44772 20 6V7C20 7.55229 19.5523 8 19 8L5 8C4.44772 8 4 7.55228 4 7V6C4 5.44772 4.44772 5 5 5L19 5Z"/>
<path fill="#3C3C3D" d="M19 10C19.5523 10 20 10.4477 20 11V12C20 12.5523 19.5523 13 19 13L12 13C11.4477 13 11 12.5523 11 12V11C11 10.4477 11.4477 10 12 10H19Z"/>
<path fill="#3C3C3D" d="M19 15C19.5523 15 20 15.4477 20 16V17C20 17.5523 19.5523 18 19 18H16C15.4477 18 15 17.5523 15 17V16C15 15.4477 15.4477 15 16 15H19Z"/>
</svg>
