<svg width="24" height="24" viewBox="0 0 24 24" fill="none" xmlns="http://www.w3.org/2000/svg">
<path fill-rule="evenodd" clip-rule="evenodd" d="M2 21H4V13H6V21H8C8 21 8 6 8 5C8 4 7.00005 3 6 3C4.99995 3 5.00005 3 4 3C2.99995 3 1.99995 4 2 5C2.00005 6 2 21 2 21ZM6 11H4C4 11 4 5.5 4 5C4 4.5 6 4.5 6 5C6 5.5 6 11 6 11Z"/>
<path fill-rule="evenodd" clip-rule="evenodd" d="M9 21C9 21 12 21 13 21C14 21 15 20 15 19C15 18 15 6 15 5C15 4 14 3 13 3C12 3 9 3 9 3V21ZM12 19H11V13H13C13 13 13 17 13 18C13 19 12 19 12 19ZM13 11H11V5H12C12 5 13 5 13 6C13 7 13 11 13 11Z"/>
<path d="M22 21V19H19C19 19 18 19 18 18C18 17 18 7 18 6C18 5 19 5 19 5H22V3C22 3 19 3 18 3C17 3 16 4 16 5C16 6 15.9999 18 16 19C16 20 17 21 18 21C19 21 22 21 22 21Z"/>
</svg>
