<svg width="24" height="24" viewBox="0 0 24 24" fill="none" xmlns="http://www.w3.org/2000/svg">
<path d="M16.845 14.255H16.055L15.775 13.985C16.755 12.845 17.345 11.365 17.345 9.755C17.345 6.165 14.435 3.255 10.845 3.255C7.42504 3.255 4.62504 5.895 4.37504 9.255H6.39504C6.64504 7.005 8.52504 5.255 10.845 5.255C13.335 5.255 15.345 7.265 15.345 9.755C15.345 12.245 13.335 14.255 10.845 14.255C10.675 14.255 10.515 14.225 10.345 14.205V16.225C10.515 16.245 10.675 16.255 10.845 16.255C12.455 16.255 13.935 15.665 15.075 14.685L15.345 14.965V15.755L20.345 20.745L21.835 19.255L16.845 14.255Z"/>
<path d="M7.81504 11.075L5.34504 13.545L2.87504 11.075L2.16504 11.785L4.63504 14.255L2.16504 16.725L2.87504 17.435L5.34504 14.965L7.81504 17.435L8.52504 16.725L6.05504 14.255L8.52504 11.785L7.81504 11.075Z"/>
</svg>
