<svg width="24" height="24" viewBox="0 0 24 24" fill="none" xmlns="http://www.w3.org/2000/svg">
<path fill="currentColor" d="M2 7L1 5C1 5 3.67748 3 4 3H6V21H4V6.5C4 5.79299 2 7 2 7Z"/>
<path fill="currentColor" d="M8 21H14V19H10C10 19 10 19 13.5 9C13.9641 7.46195 14 6.28482 14 6C14 5 13.5 3 11 3C8.5 3 8 5 8 6V9H10V6C10 6 10 5 11 5C12 5 12 6 12 6C12 6 12.0854 7.32759 11.5 9C7.99998 19 8 19 8 19V21Z"/>
<path fill="currentColor" d="M15 20.5C15 20.5 16 21 17 21C19.5 21 21 19.5 21 16C21 14 20 12.5 19 12C20 11 21 9 21 7.5C21 5.5 20 3 17 3C16 3 15 3.5 15 3.5V5.5C15 5.5 16 4.99999 17 4.99999C18.5 4.99999 19 6.5 19 7.5C19 9 18 11 16 11V13C17.4371 13 19 14 19 16C19 16.5 19 15 19 16.5C19 18 18 19 17 19C16 19 15 18.5 15 18.5V20.5Z"/>
</svg>
