<svg width="24" height="24" viewBox="0 0 24 24" fill="none" xmlns="http://www.w3.org/2000/svg">
<path fill="currentColor" d="M13 22V20C11.0716 20 4.00016 20 4.00016 20V4H20.0001C20.0001 4 20 10.8445 20 13H22C22 13 22 5 22 4C22 3 21 1.99998 20 2C19 2.00002 5.00059 2 4.0003 2C3 2 2.00016 3 1.99998 4C1.99945 6.99998 2.00001 16.9999 2.00016 20C2.00022 21 3.00011 22 4.00002 22C7.00002 22 13 22 13 22Z"/>
<path fill="currentColor" fill-rule="evenodd" clip-rule="evenodd" d="M15.91 8.68L14.49 7.26L11.32 10.43L9.91 9.01L8.5 10.42L11.32 13.26L15.91 8.68Z"/>
<path fill="currentColor" d="M15 20V18H18V15H20V18H23V20H20V23H18V20H15Z"/>
<path fill="currentColor" d="M16 15H8V17H16V15Z"/>
</svg>
