<?xml version="1.0" encoding="UTF-8"?>
<!-- Generated by Pixelmator Pro 2.4.5 -->
<svg width="24" height="24" viewBox="0 0 24 24" xmlns="http://www.w3.org/2000/svg" xmlns:xlink="http://www.w3.org/1999/xlink">
    <path id="Path" fill="#acacac" stroke="none" d="M 12 6.5 C 15.79 6.5 19.17 8.63 20.82 12 C 19.17 15.37 15.79 17.5 12 17.5 C 8.21 17.5 4.83 15.37 3.18 12 C 4.83 8.63 8.21 6.5 12 6.5 Z M 12 4.5 C 7 4.5 2.73 7.610001 1 12 C 2.73 16.389999 7 19.5 12 19.5 C 17 19.5 21.27 16.389999 23 12 C 21.27 7.610001 17 4.5 12 4.5 Z M 12 9.5 C 13.38 9.5 14.5 10.62 14.5 12 C 14.5 13.38 13.38 14.5 12 14.5 C 10.62 14.5 9.5 13.38 9.5 12 C 9.5 10.62 10.62 9.5 12 9.5 Z M 12 7.5 C 9.52 7.5 7.5 9.52 7.5 12 C 7.5 14.48 9.52 16.5 12 16.5 C 14.48 16.5 16.5 14.48 16.5 12 C 16.5 9.52 14.48 7.5 12 7.5 Z"/>
    <path id="path1" fill="none" stroke="#acacac" stroke-width="3" stroke-linecap="round" stroke-linejoin="round" d="M 2.999968 20.999971 L 20 4"/>
</svg>
