<svg width="24" height="24" viewBox="0 0 24 24" fill="none" xmlns="http://www.w3.org/2000/svg">
<path fill-rule="evenodd" clip-rule="evenodd" d="M14.9999 4C19.4182 4 22.9999 7.58172 22.9999 12C22.9999 16.4183 19.4182 20 14.9999 20C10.5816 20 6.99989 16.4183 6.99989 12C6.99989 7.58172 10.5816 4 14.9999 4ZM20.9999 12C20.9999 15.3137 18.3136 18 14.9999 18C11.6862 18 8.99989 15.3137 8.99989 12C8.99989 8.68629 11.6862 6 14.9999 6C18.3136 6 20.9999 8.68629 20.9999 12Z"/>
<path fill-rule="evenodd" clip-rule="evenodd" d="M9 4C13.4183 4 17 7.58172 17 12C17 16.4183 13.4183 20 9 20C4.58172 20 1 16.4183 1 12C1 7.58172 4.58172 4 9 4ZM15 12C15 15.3137 12.3137 18 9 18C5.68629 18 3 15.3137 3 12C3 8.68629 5.68629 6 9 6C12.3137 6 15 8.68629 15 12Z"/>
</svg>
