<?xml version="1.0" encoding="UTF-8"?>
<svg width="30px" height="30px" viewBox="0 0 30 30" version="1.1" xmlns="http://www.w3.org/2000/svg" xmlns:xlink="http://www.w3.org/1999/xlink">
    <!-- Generator: Sketch 56.3 (81716) - https://sketch.com -->
    <title>icon-settings</title>
    <desc>Created with Sketch.</desc>
    <g id="Icons" stroke="current" stroke-width="1" fill="current" fill-rule="evenodd">
        <g transform="translate(-340.000000, -312.000000)" fill="#636363" id="trakcare">
            <g transform="translate(100.000000, 192.000000)">
                <g id="icons/icon-settings" transform="translate(240.000000, 120.000000)">
                    <path d="M19.62,14.999 C19.62,17.549 17.553,19.614 15.004,19.614 C12.453,19.614 10.387,17.549 10.387,14.999 C10.387,12.45 12.453,10.384 15.004,10.384 C17.553,10.384 19.62,12.45 19.62,14.999 M26.078,13.154 L24.971,13.154 C24.463,13.154 23.924,12.757 23.773,12.272 L23.137,10.726 C22.898,10.279 22.996,9.619 23.353,9.26 L24.141,8.475 C24.5,8.115 24.5,7.527 24.141,7.168 L22.832,5.863 C22.474,5.504 21.887,5.504 21.528,5.863 L20.74,6.648 C20.383,7.007 19.721,7.105 19.273,6.865 L17.73,6.229 C17.246,6.079 16.849,5.54 16.849,5.032 L16.849,3.924 C16.849,3.417 16.432,3 15.924,3 L14.078,3 C13.57,3 13.154,3.417 13.154,3.924 L13.154,5.032 C13.154,5.54 12.758,6.079 12.273,6.229 L10.728,6.865 C10.279,7.105 9.621,7.008 9.262,6.648 L8.474,5.863 C8.115,5.504 7.529,5.504 7.17,5.863 L5.865,7.168 C5.504,7.527 5.504,8.115 5.865,8.474 L6.648,9.26 C7.008,9.619 7.107,10.279 6.865,10.726 L6.23,12.273 C6.078,12.758 5.541,13.155 5.033,13.155 L3.924,13.154 C3.416,13.154 3,13.569 3,14.077 L3,15.923 C3,16.431 3.416,16.847 3.924,16.847 L5.033,16.847 C5.541,16.848 6.078,17.245 6.228,17.729 L6.865,19.275 C7.106,19.723 7.008,20.385 6.648,20.742 L5.863,21.527 C5.504,21.887 5.504,22.474 5.863,22.834 L7.17,24.14 C7.529,24.499 8.115,24.499 8.474,24.14 L9.262,23.354 C9.62,22.996 10.279,22.898 10.724,23.14 L12.273,23.776 C12.758,23.927 13.154,24.465 13.154,24.973 L13.154,26.078 C13.154,26.585 13.57,27.001 14.078,27.001 L15.924,27.001 C16.432,27.001 16.849,26.585 16.849,26.078 L16.849,24.973 C16.849,24.465 17.246,23.927 17.73,23.776 L19.278,23.14 C19.724,22.898 20.385,22.996 20.745,23.354 L21.528,24.14 C21.887,24.499 22.474,24.499 22.832,24.14 L24.141,22.834 C24.5,22.474 24.5,21.887 24.141,21.527 L23.353,20.742 C22.996,20.385 22.898,19.723 23.137,19.275 L23.773,17.729 C23.924,17.245 24.466,16.848 24.971,16.848 L26.078,16.848 C26.586,16.848 27,16.433 27,15.925 L27,14.077 C27,13.569 26.586,13.154 26.078,13.154" id="Fill-48"></path>
                </g>
            </g>
        </g>
    </g>
</svg>