<?xml version="1.0" encoding="UTF-8"?>
<svg width="30px" height="30px" viewBox="0 0 30 30" version="1.1" xmlns="http://www.w3.org/2000/svg" xmlns:xlink="http://www.w3.org/1999/xlink">
    <!-- Generator: Sketch 56.3 (81716) - https://sketch.com -->
    <title>icon-profile</title>
    <desc>Created with Sketch.</desc>
    <g id="Icons" stroke="current" stroke-width="1" fill="current" fill-rule="evenodd">
        <g transform="translate(-160.000000, -192.000000)" id="trakcare">
            <g transform="translate(100.000000, 192.000000)">
                <g id="icons/icon-profile" transform="translate(60.000000, 0.000000)">
                    <g id="icon-profile" transform="translate(3.000000, 3.000000)">
                        <path d="M14.9102083,14.4232178 L14.9102083,16.2246623 C15.2392083,16.3673016 15.6152083,16.5318854 16.0362083,16.7174162 C16.4582083,16.9009521 16.8922083,17.0914703 17.3402083,17.2869759 C17.7882083,17.4824815 18.2412083,17.6759922 18.6982083,17.8724952 C19.1562083,18.0670034 19.5922083,18.2485443 20.0032083,18.4201104 C20.4142083,18.5876867 20.7852083,18.7383058 21.1142083,18.8729652 C21.4442083,19.0076247 21.7102083,19.10837 21.9162083,19.1801883 C22.3482083,19.3347974 22.6992083,19.5672096 22.9672083,19.8824126 C23.2342083,20.194623 23.4442083,20.5118209 23.5992083,20.8439809 C23.7842083,21.2230224 23.9182083,21.6240084 24.0002083,22.0449439 L24.0002083,24 L0.000208333333,24 L0.000208333333,22.0449439 C0.0932083333,21.6240084 0.231208333,21.2230224 0.416208333,20.8439809 C0.570208333,20.5118209 0.782208333,20.194623 1.04920833,19.8824126 C1.31720833,19.5672096 1.66120833,19.3347974 2.08320833,19.1801883 C2.29920833,19.10837 2.58220833,19.0046323 2.93220833,18.8639879 C3.28320833,18.7243411 3.67320833,18.5657422 4.10520833,18.3881911 C4.53720833,18.2086452 4.99320833,18.016132 5.47220833,17.8106516 C5.95020833,17.6031763 6.42620833,17.3996909 6.89820833,17.1942105 C7.37220833,16.9877326 7.81920833,16.7952195 8.24120833,16.6096886 C8.66420833,16.4241578 9.03420833,16.2605715 9.35320833,16.1169347 L9.35320833,14.3613742 C9.33320833,14.279581 9.29920833,14.1529013 9.25320833,13.9843276 C9.20620833,13.8147564 9.15820833,13.6431903 9.10620833,13.4676343 C9.04520833,13.2641488 8.97220833,13.0427088 8.89020833,12.8063066 C8.59220833,12.2517091 8.35520833,11.6242957 8.18020833,10.921074 C8.00520833,10.2178523 7.91720833,9.4707416 7.91720833,8.68073935 C7.91720833,7.64336267 8.02820833,6.7655824 8.24920833,6.04839602 C8.47120833,5.32921469 8.77220833,4.74469283 9.15320833,4.29383296 C9.53320833,3.84197562 9.97820833,3.51280802 10.4882083,3.30732764 C10.9972083,3.10084978 11.5442083,3.00010455 12.1312083,3.00010455 C12.7082083,3.00010455 13.2502083,3.09785735 13.7592083,3.3003453 C14.2692083,3.50083829 14.7162083,3.82302355 15.1022083,4.26889602 C15.4882083,4.71676346 15.7912083,5.30028784 16.0132083,6.02545404 C16.2352083,6.74762781 16.3452083,7.63438537 16.3452083,8.68073935 C16.3452083,9.45178952 16.2602083,10.1809456 16.0902083,10.8741925 C15.9202083,11.5684369 15.6862083,12.190863 15.3882083,12.746458 C15.3062083,13.0008147 15.2282083,13.2422043 15.1572083,13.4676343 C15.0952083,13.6641373 15.0382083,13.8516631 14.9872083,14.0282167 C14.9352083,14.210755 14.9102083,14.3424221 14.9102083,14.4232178" id="Fill-1" fill="current"></path>
                    </g>
                </g>
            </g>
        </g>
    </g>
</svg>